<svg width="109" height="33" viewBox="0 0 109 33" fill="none" xmlns="http://www.w3.org/2000/svg">
<g clip-path="url(#clip0_365_7449)">
<path d="M3.35835 32.5H0V17.6003C0 13.7263 3.08788 10.5859 6.89702 10.5859H12.4868C13.9744 10.5859 15.1915 11.8238 15.1915 13.3367V16.2708H6.89702C6.17576 16.2708 5.58974 16.8667 5.58974 17.6003V30.2306C5.58974 31.4914 4.57548 32.5 3.35835 32.5Z" fill="#73B42C"/>
<path d="M54.1402 32.5H47.4009C43.5918 32.5 40.5039 29.3596 40.5039 25.4857V17.5774C40.5039 13.7034 43.5918 10.563 47.4009 10.563H50.4663C51.9539 10.563 53.171 11.8009 53.171 13.3138V16.2479H47.4009C46.6797 16.2479 46.0937 16.8438 46.0937 17.5774V25.4857C46.0937 26.2192 46.6797 26.8152 47.4009 26.8152H54.1402C54.8614 26.8152 55.4475 26.2192 55.4475 25.4857V0.5H58.3325C59.8201 0.5 61.0372 1.73782 61.0372 3.25072V25.4857C61.0372 29.3596 57.9493 32.5 54.1402 32.5Z" fill="#73B42C"/>
<path d="M70.0076 11.2507C70.8416 12.3281 74.4253 16.9355 75.1917 17.8983L71.7432 21.4055C69.6921 19.755 65.4772 16.3625 63.4036 14.6891C63.3811 14.6891 63.3811 14.6433 63.4036 14.6204L67.0775 10.884C67.8664 10.0817 69.1737 10.1504 69.8499 11.0444L70.0076 11.2507Z" fill="#73B42C"/>
<path d="M65.1842 26.6775C66.2435 25.8293 70.7739 22.1846 71.7206 21.4053L75.1691 24.9124C73.8843 26.5629 71.5628 29.5428 69.8273 31.7892C69.1285 32.6832 67.8438 32.752 67.0549 31.9497L63.3359 28.1675L65.1842 26.6775Z" fill="#73B42C"/>
<path d="M80.352 31.5834C79.5181 30.5061 75.9343 25.8986 75.168 24.9359L78.6165 21.4287C80.6676 23.0791 84.8824 26.4717 86.956 28.145C86.9786 28.145 86.9786 28.1909 86.956 28.2138L83.2821 31.9502C82.4932 32.7525 81.186 32.6837 80.5098 31.7897L80.352 31.5834Z" fill="#73B42C"/>
<path d="M85.1763 16.1558C84.117 17.004 79.5866 20.6487 78.6399 21.428L75.1914 17.9209C76.4536 16.2934 78.7526 13.3363 80.4881 11.1128C81.2319 10.173 82.4941 10.1042 83.3281 10.9524L87.002 14.6888L85.1538 16.1787L85.1763 16.1558Z" fill="#73B42C"/>
<path d="M102.101 10.5859H92.4768C90.9892 10.5859 89.7721 11.8238 89.7721 13.3367V16.2708H102.101C102.822 16.2708 103.408 16.8667 103.408 17.6003V25.5086C103.408 26.2421 102.822 26.8381 102.101 26.8381H95.6098C94.7533 26.8381 94.0546 26.1275 94.0546 25.2564C94.0546 24.3854 94.7533 23.6748 95.6098 23.6748H101.132V21.543C101.132 20.3968 100.23 19.4799 99.1034 19.4799H94.8885C91.3499 19.4799 88.4648 22.414 88.4648 26.0129C88.4648 29.6117 91.3499 32.5458 94.8885 32.5458H102.101C105.91 32.5458 108.998 29.4054 108.998 25.5315V17.6232C108.998 13.7493 105.91 10.6089 102.101 10.6089V10.5859Z" fill="#73B42C"/>
<path d="M30.1558 10.5859H20.5315C19.0439 10.5859 17.8268 11.8238 17.8268 13.3367V16.2708H30.1558C30.8771 16.2708 31.4631 16.8667 31.4631 17.6003V25.5086C31.4631 26.2421 30.8771 26.8381 30.1558 26.8381H23.6645C22.808 26.8381 22.1093 26.1275 22.1093 25.2564C22.1093 24.3854 22.808 23.6748 23.6645 23.6748H29.1866V21.543C29.1866 20.3968 28.285 19.4799 27.1581 19.4799H22.9432C19.4046 19.4799 16.5195 22.414 16.5195 26.0129C16.5195 29.6117 19.4046 32.5458 22.9432 32.5458H30.1558C33.9649 32.5458 37.0528 29.4054 37.0528 25.5315V17.6232C37.0528 13.7493 33.9649 10.6089 30.1558 10.6089V10.5859Z" fill="#73B42C"/>
</g>
<defs>
<clipPath id="clip0_365_7449">
<rect width="109" height="32" fill="white" transform="translate(0 0.5)"/>
</clipPath>
</defs>
</svg>
